HIERARCHY
ROOT Hips
{
  OFFSET 51.5778 96.147 -3.59906
  CHANNELS 6 Xposition Yposition Zposition Zrotation Xrotation Yrotation
  JOINT spine
  {
    OFFSET 0 8.13249 0.467659
    CHANNELS 3 Zrotation Xrotation Yrotation
    JOINT spine1
    {
      OFFSET 0 10.3498 0
      CHANNELS 3 Zrotation Xrotation Yrotation
      JOINT spine2
      {
        OFFSET 0 9.91699 0
        CHANNELS 3 Zrotation Xrotation Yrotation
        JOINT Neck
        {
          OFFSET 0 25.461 1.2139
          CHANNELS 3 Zrotation Xrotation Yrotation
          JOINT Head
          {
            OFFSET 0 7.69245 0
            CHANNELS 3 Zrotation Xrotation Yrotation
            End Site
            {
              OFFSET 0 18.62 -6.14063
            }
          }
        }
        JOINT RightShoulder
        {
          OFFSET -4.17575 10.7096 -0.581445
          CHANNELS 3 Zrotation Xrotation Yrotation
          JOINT RightArm
          {
            OFFSET 0 14.0466 0
            CHANNELS 3 Zrotation Xrotation Yrotation
            JOINT RightArmRoll
            {
              OFFSET 0 7.09099 0
              CHANNELS 3 Zrotation Xrotation Yrotation
              JOINT RightForeArm
              {
                OFFSET 0 20.6535 0
                CHANNELS 3 Zrotation Xrotation Yrotation
                JOINT RightForeArmRoll
                {
                  OFFSET 0 7.95718 0
                  CHANNELS 3 Zrotation Xrotation Yrotation
                  JOINT RightHand
                  {
                    OFFSET 0 15.9683 0
                    CHANNELS 3 Zrotation Xrotation Yrotation
                    End Site
                    {
                      OFFSET 0 0 0
                    }
                  }
                }
              }
            }
          }
        }
        JOINT LeftShoulder
        {
          OFFSET 4.17575 10.7096 -0.581445
          CHANNELS 3 Zrotation Xrotation Yrotation
          JOINT LeftArm
          {
            OFFSET 0 14.0466 0
            CHANNELS 3 Zrotation Xrotation Yrotation
            JOINT LeftArmRoll
            {
              OFFSET 0 7.09098 0
              CHANNELS 3 Zrotation Xrotation Yrotation
              JOINT LeftForeArm
              {
                OFFSET 0 20.6535 0
                CHANNELS 3 Zrotation Xrotation Yrotation
                JOINT LeftForeArmRoll
                {
                  OFFSET 0 7.95718 0
                  CHANNELS 3 Zrotation Xrotation Yrotation
                  JOINT LeftHand
                  {
                    OFFSET 0 15.9683 0
                    CHANNELS 3 Zrotation Xrotation Yrotation
                    End Site
                    {
                      OFFSET 0 0 0
                    }
                  }
                }
              }
            }
          }
        }
      }
    }
  }
  JOINT RightUpLeg
  {
    OFFSET -7.20834 -1.32182 -1.10884
    CHANNELS 3 Zrotation Xrotation Yrotation
    JOINT RightUpLegRoll
    {
      OFFSET 0 18.7238 0
      CHANNELS 3 Zrotation Xrotation Yrotation
      JOINT RightLeg
      {
        OFFSET 0 -23.1866 0
        CHANNELS 3 Zrotation Xrotation Yrotation
        JOINT RightLegRoll
        {
          OFFSET 0 23.2624 0
          CHANNELS 3 Zrotation Xrotation Yrotation
          JOINT RightFoot
          {
            OFFSET 0 19.3621 0
            CHANNELS 3 Zrotation Xrotation Yrotation
            JOINT RightToeBase
            {
              OFFSET 0 16.1857 0
              CHANNELS 3 Zrotation Xrotation Yrotation
              End Site
              {
                OFFSET 0.00686052 7.83863 -0.903522
              }
            }
          }
        }
      }
    }
  }
  JOINT LeftUpLeg
  {
    OFFSET 7.20834 -1.32182 -1.10884
    CHANNELS 3 Zrotation Xrotation Yrotation
    JOINT LeftUpLegRoll
    {
      OFFSET 0 18.7239 0
      CHANNELS 3 Zrotation Xrotation Yrotation
      JOINT LeftLeg
      {
        OFFSET 0 23.1865 0
        CHANNELS 3 Zrotation Xrotation Yrotation
        JOINT LeftLegRoll
        {
          OFFSET 0 23.4775 0
          CHANNELS 3 Zrotation Xrotation Yrotation
          JOINT LeftFoot
          {
            OFFSET 0 19.147 0
            CHANNELS 3 Zrotation Xrotation Yrotation
            JOINT LeftToeBase
            {
              OFFSET 0 16.1857 0
              CHANNELS 3 Zrotation Xrotation Yrotation
              End Site
              {
                OFFSET -0.0307459 7.83863 -0.903521
              }
            }
          }
        }
      }
    }
  }
}
MOTION
Frames: 11
Frame Time: 0.00208333
53.6864 96.064 4.20738 -1.7825 -4.77816 1.85119 0.659232 -0.41747 -0.134107 1.30573 3.17855 -0.346529 1.31165 4.82336 -0.368509 -0.0746382 10.0971 -4.15201 -0.531555 -1.33304 -4.26084 60.6347 -9.28535 -5.79472 113.007 21.1325 18.2124 -7.01434e-007 2.72869e-006 -1.88899e-006 6.4285 0.0487435 -0.699104 -8.92835e-006 -1.14419e-006 -3.02707 8.02931 -4.95143 0.697682 -57.8708 -7.53959 4.64629 -115.084 18.8695 -6.65773 -1.37178e-005 -4.56204e-006 3.87137e-006 -8.46887 0.0657848 1.24088 -8.52251e-007 2.7405e-006 3.06162 -8.02909 -4.95145 -0.697681 176.132 0.043799 2.26945 180 7.01537e-015 178.882 178.802 12.6933 179.715 -1.98147e-006 1.70924e-006 0.325031 -21.2316 70.8742 22.2808 8.13154 25.2387 -3.48193 -171.749 -0.204437 -2.47254 4.54188e-006 -4.6773e-006 -0.892729 -0.685752 -14.6489 0.570269 1.96818e-006 -3.05591e-006 -0.247596 20.6853 72.9485 -24.3671 -8.12151 25.2335 3.48135 
53.6789 96.0612 4.20859 -1.77556 -4.73842 1.84552 0.658173 -0.421067 -0.131673 1.30452 3.17045 -0.341971 1.31037 4.81526 -0.363945 -0.0867647 10.0959 -4.14792 -0.529991 -1.32539 -4.2595 60.6156 -9.29466 -5.80013 113.047 21.0822 18.2328 -7.01434e-007 2.72869e-006 -1.88899e-006 6.42139 0.0487442 -0.698172 -8.92835e-006 -1.14419e-006 -3.02707 8.02931 -4.95143 0.697682 -57.8698 -7.54572 4.65014 -115.101 18.8442 -6.67484 -1.37178e-005 -4.56204e-006 3.87137e-006 -8.4648 0.0657732 1.24214 -8.52251e-007 2.7405e-006 3.06161 -8.02909 -4.95145 -0.697681 176.125 0.0957216 2.26904 180 7.01537e-015 178.882 178.802 12.7192 179.715 -1.98147e-006 1.70924e-006 0.325459 -21.2492 70.8874 22.2956 8.13154 25.2386 -3.48207 -171.76 -0.166462 -2.46423 4.54188e-006 -4.6773e-006 -0.89313 -0.686945 -14.6526 0.569578 1.96818e-006 -3.05591e-006 -0.248562 20.7048 72.9538 -24.378 -8.12151 25.2335 3.48135 
53.6756 96.0583 4.21462 -1.76866 -4.69899 1.83968 0.657139 -0.424554 -0.129243 1.30341 3.16253 -0.337457 1.3092 4.80734 -0.359427 -0.0998956 10.0941 -4.1436 -0.527794 -1.31747 -4.25809 60.5953 -9.30432 -5.80574 113.089 21.0321 18.2524 -7.01434e-007 2.72869e-006 -1.88899e-006 6.41445 0.0487448 -0.697217 -8.92835e-006 -1.14419e-006 -3.02707 8.02931 -4.95143 0.697682 -57.869 -7.55208 4.65413 -115.116 18.8191 -6.69053 -1.37178e-005 -4.56204e-006 3.87137e-006 -8.4615 0.065765 1.24329 -8.52251e-007 2.7405e-006 3.0616 -8.02909 -4.95145 -0.697681 176.119 0.147241 2.2686 180 7.01537e-015 178.882 178.803 12.7449 179.715 -1.98147e-006 1.70924e-006 0.32586 -21.2669 70.9006 22.3103 8.13153 25.2384 -3.48229 -171.771 -0.128912 -2.45605 4.54188e-006 -4.6773e-006 -0.89352 -0.688196 -14.6561 0.568896 1.96818e-006 -3.05591e-006 -0.249518 20.7243 72.959 -24.389 -8.12151 25.2335 3.48135 
53.6727 96.0537 4.22624 -1.76179 -4.65978 1.83373 0.656124 -0.427965 -0.126817 1.30237 3.15474 -0.332973 1.30809 4.79956 -0.354942 -0.113729 10.092 -4.13911 -0.525154 -1.30938 -4.25665 60.5742 -9.31422 -5.81148 113.131 20.9821 18.2715 -7.01434e-007 2.72869e-006 -1.88899e-006 6.40764 0.0487455 -0.696246 -8.92835e-006 -1.14419e-006 -3.02707 8.02931 -4.95143 0.697682 -57.8684 -7.55859 4.65823 -115.132 18.794 -6.70524 -1.37178e-005 -4.56204e-006 3.87137e-006 -8.45873 0.0657591 1.24436 -8.52251e-007 2.7405e-006 3.06159 -8.02909 -4.95145 -0.697681 176.112 0.198479 2.26814 180 7.01537e-015 178.882 178.804 12.7704 179.715 -1.98147e-006 1.70924e-006 0.326242 -21.2848 70.9139 22.3252 8.13151 25.2382 -3.48255 -171.781 -0.0916597 -2.44797 4.54188e-006 -4.6773e-006 -0.893904 -0.689487 -14.6596 0.568221 1.96818e-006 -3.05591e-006 -0.250465 20.7438 72.9642 -24.4001 -8.12151 25.2335 3.48135 
53.6702 96.0549 4.22947 -1.75493 -4.62069 1.82772 0.655118 -0.431333 -0.124392 1.30137 3.14703 -0.328507 1.30702 4.79184 -0.350474 -0.127965 10.0896 -4.13452 -0.52226 -1.30118 -4.25518 60.5526 -9.32426 -5.81731 113.175 20.9322 18.2903 -7.01434e-007 2.72869e-006 -1.88899e-006 6.40088 0.0487461 -0.695265 -8.92835e-006 -1.14419e-006 -3.02707 8.02931 -4.95143 0.697682 -57.8679 -7.56519 4.66239 -115.148 18.7691 -6.71937 -1.37178e-005 -4.56204e-006 3.87137e-006 -8.45628 0.0657547 1.2454 -8.52251e-007 2.7405e-006 3.06158 -8.02909 -4.95145 -0.697681 176.106 0.249556 2.26766 180 7.01537e-015 178.882 178.804 12.7959 179.715 -1.98147e-006 1.70924e-006 0.326614 -21.3027 70.9272 22.3401 8.1315 25.2381 -3.48284 -171.792 -0.0545774 -2.43995 4.54188e-006 -4.6773e-006 -0.894283 -0.690801 -14.663 0.56755 1.96818e-006 -3.05591e-006 -0.251407 20.7632 72.9695 -24.4112 -8.12151 25.2335 3.48135 
53.674 96.0536 4.22481 -1.74807 -4.58163 1.82169 0.654116 -0.434689 -0.121968 1.30038 3.13933 -0.324044 1.30597 4.78415 -0.346011 -0.1423 10.0872 -4.12991 -0.519303 -1.29295 -4.2537 60.5309 -9.33434 -5.82316 113.218 20.8822 18.3089 -7.01434e-007 2.72869e-006 -1.88899e-006 6.39415 0.0487468 -0.694281 -8.92835e-006 -1.14419e-006 -3.02707 8.02931 -4.95143 0.697682 -57.8674 -7.57181 4.66657 -115.163 18.7441 -6.73337 -1.37178e-005 -4.56204e-006 3.87137e-006 -8.45391 0.0657506 1.24642 -8.52251e-007 2.7405e-006 3.06157 -8.02909 -4.95145 -0.697681 176.099 0.300592 2.26717 180 7.01537e-015 178.882 178.805 12.8214 179.715 -1.98147e-006 1.70924e-006 0.326983 -21.3207 70.9404 22.355 8.13149 25.2379 -3.48314 -171.803 -0.0175373 -2.43194 4.54188e-006 -4.6773e-006 -0.894662 -0.692121 -14.6665 0.566879 1.96818e-006 -3.05591e-006 -0.252349 20.7827 72.9747 -24.4223 -8.12151 25.2335 3.48135 
53.67 96.0513 4.23212 -1.74119 -4.54251 1.8157 0.653109 -0.438068 -0.119543 1.29937 3.1316 -0.319574 1.30489 4.77641 -0.34154 -0.156434 10.0849 -4.12535 -0.516474 -1.28477 -4.25223 60.5094 -9.34435 -5.82897 113.261 20.8323 18.3278 -7.01434e-007 2.72869e-006 -1.88899e-006 6.38738 0.0487474 -0.693303 -8.92835e-006 -1.14419e-006 -3.02707 8.02931 -4.95143 0.697682 -57.8669 -7.57838 4.67071 -115.179 18.7191 -6.74764 -1.37178e-005 -4.56204e-006 3.87137e-006 -8.45138 0.0657458 1.24746 -8.52251e-007 2.7405e-006 3.06156 -8.02909 -4.95145 -0.697681 176.092 0.351709 2.2667 180 7.01537e-015 178.881 178.805 12.8469 179.715 -1.98147e-006 1.70924e-006 0.327357 -21.3387 70.9537 22.3699 8.13147 25.2377 -3.48343 -171.813 0.0195884 -2.4239 4.54188e-006 -4.6773e-006 -0.895043 -0.693429 -14.6699 0.566207 1.96818e-006 -3.05591e-006 -0.253293 20.8021 72.98 -24.4334 -8.12151 25.2335 3.48135 
53.6626 96.0515 4.23404 -1.73427 -4.50324 1.80979 0.652089 -0.441501 -0.117116 1.29831 3.12378 -0.315082 1.30377 4.76859 -0.337045 -0.170066 10.0829 -4.12091 -0.513962 -1.27673 -4.2508 60.4885 -9.35418 -5.83468 113.303 20.7823 18.347 -7.01434e-007 2.72869e-006 -1.88899e-006 6.38053 0.0487481 -0.692336 -8.92835e-006 -1.14419e-006 -3.02707 8.02931 -4.95143 0.697682 -57.8662 -7.58485 4.67479 -115.195 18.6941 -6.76261 -1.37178e-005 -4.56204e-006 3.87137e-006 -8.44846 0.0657393 1.24856 -8.52251e-007 2.7405e-006 3.06155 -8.02909 -4.95145 -0.697681 176.086 0.403027 2.26625 180 7.01537e-015 178.881 178.806 12.8725 179.715 -1.98147e-006 1.70924e-006 0.327744 -21.3566 70.9669 22.3848 8.13146 25.2375 -3.48368 -171.824 0.0569276 -2.4158 4.54188e-006 -4.6773e-006 -0.895428 -0.694709 -14.6734 0.56553 1.96818e-006 -3.05591e-006 -0.254242 20.8216 72.9852 -24.4445 -8.12151 25.2335 3.48135 
53.6619 96.0526 4.2383 -1.72731 -4.46371 1.80401 0.65105 -0.445021 -0.114685 1.29718 3.1158 -0.310555 1.30257 4.76062 -0.332514 -0.182893 10.0813 -4.11665 -0.511957 -1.26889 -4.24942 60.4685 -9.36373 -5.84023 113.345 20.7322 18.3669 -7.01434e-007 2.72869e-006 -1.88899e-006 6.37354 0.0487487 -0.691388 -8.92835e-006 -1.14419e-006 -3.02707 8.02931 -4.95143 0.697682 -57.8653 -7.59114 4.67874 -115.211 18.6689 -6.77871 -1.37178e-005 -4.56204e-006 3.87137e-006 -8.44493 0.06573 1.24975 -8.52251e-007 2.7405e-006 3.06154 -8.02909 -4.95145 -0.697681 176.079 0.454668 2.26583 180 7.01537e-015 178.881 178.806 12.8982 179.716 -1.98147e-006 1.70924e-006 0.328153 -21.3744 70.9801 22.3997 8.13146 25.2374 -3.48388 -171.835 0.094608 -2.40758 4.54188e-006 -4.6773e-006 -0.895822 -0.695943 -14.677 0.564845 1.96818e-006 -3.05591e-006 -0.255201 20.8412 72.9904 -24.4556 -8.12151 25.2335 3.48135 
53.6612 96.0535 4.24657 -1.72029 -4.42385 1.79841 0.649983 -0.448661 -0.112248 1.29594 3.10763 -0.30598 1.30127 4.75245 -0.327933 -0.194616 10.0803 -4.11266 -0.51065 -1.26134 -4.2481 60.4498 -9.3729 -5.84556 113.385 20.6819 18.3876 -7.01434e-007 2.72869e-006 -1.88899e-006 6.36637 0.0487494 -0.690466 -8.92835e-006 -1.14419e-006 -3.02707 8.02931 -4.95143 0.697682 -57.8641 -7.59718 4.68253 -115.227 18.6435 -6.79636 -1.37178e-005 -4.56204e-006 3.87137e-006 -8.44054 0.0657171 1.25105 -8.52251e-007 2.7405e-006 3.06154 -8.02909 -4.95145 -0.697681 176.073 0.506752 2.26546 180 7.01537e-015 178.881 178.807 12.9242 179.716 -1.98147e-006 1.70924e-006 0.328591 -21.392 70.9933 22.4146 8.13145 25.2373 -3.48399 -171.846 0.132757 -2.39923 4.54188e-006 -4.6773e-006 -0.896226 -0.697114 -14.6807 0.564151 1.96818e-006 -3.05591e-006 -0.256172 20.8608 72.9957 -24.4665 -8.12151 25.2335 3.48135 
53.656 96.0462 4.24948 -1.7132 -4.38354 1.79304 0.648881 -0.452454 -0.109806 1.29457 3.0992 -0.301346 1.29983 4.74401 -0.323288 -0.204933 10.0801 -4.10899 -0.510231 -1.25415 -4.24688 60.4327 -9.38157 -5.85061 113.423 20.6315 18.4094 -7.01434e-007 2.72869e-006 -1.88899e-006 6.35896 0.0487501 -0.689576 -8.92835e-006 -1.14419e-006 -3.02707 8.02931 -4.95143 0.697682 -57.8626 -7.60292 4.68611 -115.244 18.6179 -6.81597 -1.37178e-005 -4.56204e-006 3.87137e-006 -8.43508 0.0656993 1.2525 -8.52251e-007 2.7405e-006 3.06153 -8.02909 -4.95145 -0.697681 176.066 0.5594 2.26514 180 7.01537e-015 178.881 178.807 12.9505 179.716 -1.98147e-006 1.70924e-006 0.329066 -21.4095 71.0064 22.4294 8.13145 25.2373 -3.48401 -171.857 0.171504 -2.39068 4.54188e-006 -4.6773e-006 -0.896645 -0.698205 -14.6845 0.563443 1.96818e-006 -3.05591e-006 -0.25716 20.8806 73.001 -24.4774 -8.12151 25.2335 3.48135 
